<svg width="117" height="120" viewBox="0 0 117 120" fill="none" xmlns="http://www.w3.org/2000/svg">
<path d="M14.625 119.925C10.6031 119.925 7.16137 118.584 4.29975 115.902C1.43325 113.216 0 109.988 0 106.219V44.5436C0 42.3735 0.519186 40.3176 1.55756 38.376C2.59106 36.4344 4.02188 34.8354 5.85 33.579L49.725 2.74114C51.0656 1.82743 52.4672 1.14214 53.9297 0.685285C55.3922 0.228428 56.9156 0 58.5 0C60.0844 0 61.6078 0.228428 63.0703 0.685285C64.5328 1.14214 65.9344 1.82743 67.275 2.74114L111.15 33.579C112.978 34.8354 114.411 36.4344 115.45 38.376C116.483 40.3176 117 42.3735 117 44.5436V106.219C117 109.988 115.569 113.216 112.708 115.902C109.841 118.584 106.397 119.925 102.375 119.925H73.125V71.955H43.875V119.925H14.625Z" fill="#3469CF"/>
<path d="M52 39.5L44 26L52 14H67L73.5 26H59L52 39.5Z" fill="#F29D38"/>
<path d="M73.5 48L67 35.5L59 48H44L52 60H67L73.5 48Z" fill="#F29D38"/>
<path d="M52 39.5L44 26L52 14H67L73.5 26H59L52 39.5Z" stroke="#F29D38"/>
<path d="M73.5 48L67 35.5L59 48H44L52 60H67L73.5 48Z" stroke="#F29D38"/>
</svg>
